<svg xmlns="http://www.w3.org/2000/svg" width="43" height="45" viewBox="0 0 43 45" fill="none"><path d="M5.73546 26.2366C5.26727 27.3464 4.19038 28.086 2.98583 28.086H1.92728C0.894503 28.086 0.0572736 27.2488 0.0572736 26.216C1.31e-06 20.8697 2.80634 15.931 7.33085 13.4257C7.8965 13.1343 8.47364 12.8719 9.06048 12.6391C10.9789 11.878 12.2931 14.0636 11.1223 15.7632C9.06439 19.1064 7.26639 22.6075 5.73546 26.2366ZM27.9374 33.3542C27.9374 33.3518 27.9346 33.3503 27.9326 33.3517C24.7706 35.4829 21.4607 37.3564 18.0308 38.9501C16.9045 39.4735 16.1622 40.5905 16.1622 41.8325V43.1532C16.1622 44.14 16.9622 44.9401 17.9491 44.9401C23.0578 45 27.777 42.0631 30.171 37.3282C30.8358 35.9145 31.3435 34.4322 31.6831 32.9069C31.9174 31.8544 30.7076 31.2027 29.8625 31.8723C29.239 32.3664 28.5986 32.8615 27.9423 33.3567C27.9403 33.3582 27.9374 33.3568 27.9374 33.3542ZM42.9942 5.59803C42.9974 5.59803 42.9999 5.60065 42.9998 5.60383C42.7568 13.7532 37.1555 21.8307 25.8527 30.3157C23.0756 32.2025 20.1486 33.854 17.1224 35.2611C16.6727 35.4702 16.1622 35.139 16.1622 34.643C16.1508 31.0349 13.3559 28.11 9.89665 28.086C9.4148 28.086 9.08643 27.5984 9.27384 27.1545C10.6254 23.9533 12.2143 20.8743 14.0317 17.9449C22.1185 6.13745 29.8274 0.275706 37.605 0C41.4747 0 42.9871 1.65263 42.9885 5.59228C42.9885 5.5954 42.9911 5.59803 42.9942 5.59803ZM32.2672 15.919C32.2672 13.3298 30.2627 11.244 27.7999 11.244C25.3372 11.244 23.3327 13.3418 23.3327 15.919C23.3327 18.4963 25.3372 20.594 27.7999 20.594C30.2627 20.594 32.2672 18.4963 32.2672 15.919ZM2.51998 44.5325C4.53596 44.1609 9.39265 43.118 11.0192 41.4158C13.1153 39.2222 13.1153 35.662 11.0192 33.4683C8.92302 31.2746 5.52104 31.2746 3.42488 33.4683C1.79835 35.1705 0.801811 40.2531 0.446723 42.3628L0.428054 42.473C0.220222 43.6999 1.29646 44.7595 2.51998 44.5325Z" fill="url(#paint0_linear_6117_2508)"></path><defs><linearGradient id="paint0_linear_6117_2508" x1="37.974" y1="22.5" x2="-2.49536" y2="24.4675" gradientUnits="userSpaceOnUse"><stop offset="0.049435" stop-color="#124EC6"></stop><stop offset="1" stop-color="#19B8E8"></stop></linearGradient></defs></svg>