<svg xmlns="http://www.w3.org/2000/svg" width="31" height="43" viewBox="0 0 31 43" fill="none"><path d="M27.9 30.7143H3.1V15.3571H15.5V12.2857H0V38.3929C0 40.9421 2.077 43 4.65 43H26.35C28.923 43 31 40.9421 31 38.3929V29.1786H27.9V30.7143ZM9.3 38.3929H6.2V35.3214H9.3V38.3929ZM15.5 38.3929C14.6475 38.3929 13.95 37.7018 13.95 36.8571C13.95 36.0125 14.6475 35.3214 15.5 35.3214C16.3525 35.3214 17.05 36.0125 17.05 36.8571C17.05 37.7018 16.3525 38.3929 15.5 38.3929ZM24.8 38.3929H21.7V35.3214H24.8V38.3929ZM31 4.60714V27.6429H15.5V24.5714H27.9V9.21429H3.1V10.75H0V4.60714C0 2.05786 2.077 0 4.65 0H26.35C28.923 0 31 2.05786 31 4.60714Z" fill="url(#paint0_linear_6255_3028)"></path><defs><linearGradient id="paint0_linear_6255_3028" x1="27.3766" y1="21.5" x2="-1.82865" y2="22.5712" gradientUnits="userSpaceOnUse"><stop offset="0.049435" stop-color="#124EC6"></stop><stop offset="1" stop-color="#19B8E8"></stop></linearGradient></defs></svg>