<svg xmlns="http://www.w3.org/2000/svg" width="237" height="21" viewBox="0 0 237 21" fill="none"><g clip-path="url(#clip0_6294_4512)"><path d="M7.91992 0C4.14302 0 0.788762 2.16851 0.788762 5.89779C0.788762 9.62707 3.32464 11.1354 7.49458 12.2017C10.1435 12.8398 11.0454 13.7928 11.0454 15.1796C11.0454 16.5663 9.77741 17.4061 8.17028 17.4061C6.39624 17.4061 4.84563 16.4227 4.44991 14.3702H0C0.336502 18.6796 3.49424 20.7624 8.25373 20.7624C12.1437 20.7624 15.6649 18.6796 15.6649 14.8039C15.6649 11.6519 13.8074 9.56906 9.52167 8.52763C6.39624 7.77901 5.40827 6.96685 5.40827 5.46409C5.40827 3.96133 6.39355 3.35359 7.77455 3.35359C9.63474 3.35359 10.6496 4.53867 10.8758 6.39227H15.3257C14.9057 2.77348 12.7656 0 7.91992 0Z" fill="white"></path><path d="M37.0529 0.40625H32.6568V8.79023H24.1447V0.40625H19.7217V20.3593H24.1447V12.3482H32.6568V20.3593H37.0529V0.40625Z" fill="white"></path><path d="M46.631 20.3565V0.40625H42.208V20.3593H46.631V20.3565Z" fill="white"></path><path d="M61.7065 0.549896C60.7212 0.433874 59.9593 0.40625 58.8045 0.40625H51.7891V20.3593H56.212V13.072H58.8045C59.9593 13.072 60.7212 13.0444 61.7065 12.9284C64.525 12.5803 67.0044 10.5278 67.0044 6.73774C67.0044 2.94769 64.6085 0.897963 61.7065 0.549896ZM60.1882 9.45597C59.7924 9.51399 59.2594 9.51398 58.6376 9.51398H56.2147V3.9615H58.6376C59.2594 3.9615 59.7924 3.9615 60.1882 4.01951C61.5126 4.19078 62.3849 5.03056 62.3849 6.73774C62.3849 8.44492 61.5126 9.28194 60.1882 9.45874V9.45597Z" fill="white"></path><path d="M71.5244 20.6628H73.7615V4.23737L87.1758 20.6628H89.4667V1.07715H87.2297V17.4998L73.8153 1.07715H71.5244V20.6628Z" fill="white"></path><path d="M95.5156 20.6628H110.292V18.7042H97.7769V11.8506H109.802V9.91969H97.7769V3.00809H110.292V1.07715H95.5156V20.6628Z" fill="white"></path><path d="M121.249 20.6628H123.486V3.00809H131.613V1.07715H113.127V3.00809H121.251V20.6628H121.249Z" fill="white"></path><path d="M142.456 20.9996H144.446L149.162 10.9002L150.88 6.8698L152.708 11.0659L157.341 20.9996H159.306L168.197 1.07698H165.718L160.21 13.8615L158.302 18.6184L156.339 13.8891L151.814 4.23444H149.962L145.463 13.8588L143.474 18.6157L141.565 13.8588L136.057 1.07422H133.578L142.464 20.9941L142.456 20.9996Z" fill="white"></path><path d="M181.439 20.9697C187.3 20.9697 191.499 16.7183 191.499 10.7873C191.499 4.8564 187.3 0.629883 181.439 0.629883C175.578 0.629883 171.379 4.88403 171.379 10.7873C171.379 16.6907 175.578 20.9697 181.439 20.9697ZM181.439 19.0111C176.83 19.0111 173.64 15.6271 173.64 10.7873C173.64 5.94756 176.83 2.58845 181.439 2.58845C186.048 2.58845 189.238 5.94756 189.238 10.7873C189.238 15.6271 186.018 19.0111 181.439 19.0111Z" fill="white"></path><path d="M196.514 20.6628H198.776V13.1075H203.22L210.825 20.6628H213.66V20.5219L206.192 13.1075H206.682V13.0799C208.782 13.055 210.392 12.5219 211.56 11.5965C212.952 10.5053 213.636 8.77052 213.636 7.06334C213.636 5.35615 212.982 3.70422 211.697 2.64345C210.171 1.38654 208.017 1.07715 206.327 1.07715H196.512V20.6628H196.514ZM198.776 11.1766V3.00809H206.327C207.447 3.00809 209.162 3.14897 210.281 4.1545C210.989 4.79814 211.369 5.91693 211.369 7.03848C211.369 8.16002 210.96 9.35892 210.171 10.0578C209.406 10.7291 208.233 11.1241 206.653 11.1794H198.773L198.776 11.1766Z" fill="white"></path><path d="M218.242 20.6628H220.479V15.2622L224.921 11.3479L234.028 20.6628H237L226.531 9.91969L236.537 1.07715H233.21L223.696 9.6103L220.479 12.7153V1.07715H218.242V20.6628Z" fill="white"></path></g><defs><clipPath id="clip0_6294_4512"><rect width="237" height="21" fill="white"></rect></clipPath></defs></svg>