<svg xmlns="http://www.w3.org/2000/svg" width="127" height="37" viewBox="0 0 127 37" fill="none"><g clip-path="url(#clip0_6294_4466)"><path d="M102.136 31.0088H25.4004L31.5205 37.0004L102.136 31.0088Z" fill="white"></path><path d="M114.453 27.1875V15.2044C114.413 14.6788 114.485 14.1509 114.663 13.6535C114.841 13.1561 115.122 12.7 115.488 12.3138C115.854 11.9276 116.298 11.6195 116.791 11.4088C117.285 11.1981 117.817 11.0894 118.355 11.0894C118.894 11.0894 119.426 11.1981 119.92 11.4088C120.413 11.6195 120.857 11.9276 121.223 12.3138C121.589 12.7 121.87 13.1561 122.048 13.6535C122.226 14.1509 122.298 14.6788 122.258 15.2044V27.1888H127.001V15.2044C127.001 10.2609 123.558 6.29102 118.509 6.29102C117.06 6.32407 115.652 6.76618 114.453 7.56418V6.73985H109.71V27.1129H114.453V27.1875Z" fill="white"></path><path d="M98.7691 6.2168C93.2611 6.2168 89.3584 10.9414 89.3584 16.9268C89.3584 23.218 94.2542 27.6367 99.2276 27.6367C100.901 27.6409 102.548 27.2227 104.009 26.4223C105.469 25.622 106.695 24.4665 107.566 23.0675L103.359 20.6704C100.146 25.3142 94.714 22.9917 94.1018 18.2733H107.72C108.944 11.0856 104.125 6.2168 98.7691 6.2168ZM102.9 14.3058H94.4079C94.5428 13.2967 95.048 12.3701 95.8293 11.6988C96.6106 11.0275 97.6146 10.6573 98.6542 10.6573C99.6937 10.6573 100.698 11.0275 101.479 11.6988C102.26 12.3701 102.766 13.2967 102.9 14.3058Z" fill="white"></path><path d="M87.8298 22.3202C87.3599 22.6484 86.8003 22.8312 86.2232 22.8448C85.9097 22.831 85.6022 22.7554 85.3193 22.6225C85.0363 22.4895 84.7837 22.3021 84.5765 22.0713C84.3694 21.8405 84.2119 21.5711 84.1136 21.2793C84.0153 20.9875 83.9782 20.6793 84.0045 20.3731V11.609H88.0596V6.74508H84.0045V1.64746H79.2611V6.74508H76.7363V11.6139H79.2611V20.3719C79.2202 21.305 79.3714 22.2366 79.7058 23.1113C80.0402 23.986 80.551 24.7859 81.2077 25.4633C81.8644 26.1408 82.6536 26.682 83.5283 27.0547C84.4031 27.4274 85.3455 27.6241 86.2994 27.6329C87.9119 27.5776 89.4867 27.1407 90.8892 26.3597L87.8298 22.3202Z" fill="white"></path><path d="M70.3855 6.74121V18.7256C70.4255 19.2511 70.3542 19.7791 70.1762 20.2765C69.9982 20.7739 69.7173 21.2299 69.3511 21.6162C68.9848 22.0024 68.5411 22.3105 68.0477 22.5212C67.5543 22.7319 67.0217 22.8406 66.4834 22.8406C65.9451 22.8406 65.4126 22.7319 64.9191 22.5212C64.4257 22.3105 63.982 22.0024 63.6157 21.6162C63.2495 21.2299 62.9686 20.7739 62.7906 20.2765C62.6126 19.7791 62.5414 19.2511 62.5813 18.7256V6.74121H57.8379V18.7256C57.8379 23.669 61.2809 27.639 66.3304 27.639C67.7792 27.6059 69.1873 27.1638 70.3855 26.3658V27.1118H75.1289V6.74121H70.3855Z" fill="white"></path><path d="M48.9637 16.3285L57.0739 6.74129H50.494L44.7625 13.8568V0H39.9365V27.1877H44.7625V18.799L51.8009 27.1877H58.3807L48.9637 16.3285Z" fill="white"></path><path d="M32.5161 6.74148V7.6404C31.2234 6.72712 29.6728 6.22966 28.0787 6.2168C22.7231 6.2168 18.5918 11.0098 18.5918 16.9268C18.5918 22.8437 22.6469 27.6367 28.0787 27.6367C29.6747 27.6356 31.2289 27.137 32.5161 26.2131V27.1121H37.2608V6.74148H32.5161ZM28.0025 22.7691C25.3253 22.7691 23.4127 20.2228 23.4127 17.0014C23.4127 13.7799 25.3253 11.2336 28.0025 11.2336C30.6797 11.2336 32.5161 13.7799 32.5161 17.0014C32.5923 20.2228 30.6797 22.7691 28.0025 22.7691Z" fill="white"></path><path d="M4.97332 27.1878V19.2492H8.41629L14.4602 27.1132H20.6578L13.3134 17.6005C14.8565 16.5158 16.009 14.9806 16.6057 13.215C17.2023 11.4494 17.2125 9.54413 16.6347 7.77252C16.0569 6.00091 14.9208 4.45398 13.3893 3.3536C11.8579 2.25323 10.0098 1.65596 8.11022 1.64746H0V27.1132H4.97332V27.1878ZM4.97332 6.51506H8.18642C8.71895 6.51506 9.24626 6.61775 9.73824 6.81726C10.2302 7.01676 10.6773 7.30919 11.0538 7.67783C11.4304 8.04647 11.7291 8.48411 11.9329 8.96576C12.1366 9.44742 12.2415 9.96365 12.2415 10.485C12.2415 11.0063 12.1366 11.5226 11.9329 12.0042C11.7291 12.4859 11.4304 12.9235 11.0538 13.2921C10.6773 13.6608 10.2302 13.9532 9.73824 14.1527C9.24626 14.3522 8.71895 14.4549 8.18642 14.4549H4.97332V6.51506Z" fill="white"></path></g><defs><clipPath id="clip0_6294_4466"><rect width="127" height="37" fill="white"></rect></clipPath></defs></svg>